<?xml version="1.0" standalone="no"?>
<!DOCTYPE svg PUBLIC "-//W3C//DTD SVG 1.1//EN" "http://www.w3.org/Graphics/SVG/1.1/DTD/svg11.dtd">
<svg xmlns="http://www.w3.org/2000/svg">
<metadata>Generated by Fontastic.me</metadata>
<defs>
<font id="digigo" horiz-adv-x="512">
<font-face font-family="digigo" units-per-em="512" ascent="480" descent="-32"/>
<missing-glyph horiz-adv-x="512" />

<glyph glyph-name="twitter" unicode="&#98;" d="M459 360c1-4 1-9 1-13 0-139-106-299-299-299-59 0-115 17-161 47 8-1 17-1 25-1 49 0 95 16 131 45-47 1-85 31-98 72 6 0 12-1 19-1 10 0 19 1 28 3-48 10-84 52-84 103l0 2c14-8 30-13 47-14-28 19-47 51-47 88 0 19 6 37 15 53 51-64 129-106 216-110-2 8-2 16-2 24 0 58 46 105 104 105 31 0 58-13 77-33 24 4 47 13 67 25-8-24-25-45-46-58 21 3 41 8 60 17-14-21-32-40-53-55z"/>
<glyph glyph-name="facebook" unicode="&#100;" d="M340 427l48 0 0 81c-8 1-37 4-70 4-70 0-117-42-117-120l0-72-77 0 0-91 77 0 0-229 94 0 0 229 73 0 12 91-85 0 0 63c0 26 7 44 45 44z"/>
<glyph glyph-name="aso" unicode="&#97;" d="M428 244l-154-154c-4-4-11-7-18-7-7 0-14 3-18 7l-154 154c-41 43-41 111 0 154 43 42 112 42 154 0 4-5 11-8 18-8 7 0 14 3 18 8 43 42 112 42 154 0 42-43 42-112 0-154z m37 191c-56 56-145 63-209 15-68 51-163 40-218-24-55-64-51-159 9-218l154-155c30-30 78-30 108 0l154 155c31 30 48 71 48 114 2 42-16 82-46 113z m-159-154l-24 0 0 25c0 13-12 25-25 25-14 0-25-12-25-25l0-25-25 0c-13 0-25-11-25-25 0-14 12-25 25-25l25 0 0-25c0-13 11-25 25-25 13 0 25 12 25 25l0 25 24 0c14 0 25 11 25 25 0 14-11 25-25 25z"/>
<glyph glyph-name="ppra-1" unicode="&#99;" d="M461 205l-64 0c-7 0-14-3-18-8l-32-31-72 81c-4 6-11 9-19 9-7 0-14-3-19-8l-42-43-41 0c-15 0-26-11-26-26 0-14 11-25 26-25l51 0c7 0 13 2 18 7l33 32 72-82c4-5 11-9 18-9 7 0 14 3 18 8l43 44 54 0c14 0 25 11 25 25 0 15-11 26-25 26z m-179 222l68-69-42 0c-14 0-26 12-26 27z m128-325c-15 0-26-11-26-25 0-15-11-26-26-26l-256 0c-14 0-25 11-25 26l0 358c0 15 11 26 25 26l128 0 0-77c0-43 35-77 77-77l77 0 0-25c0-15 11-26 26-26 14 0 25 11 25 26l0 51c0 0 0 0 0 2 0 2-1 4-2 6 0 1 0 2 0 3 0 2-2 5-5 7l-153 153c-2 2-4 4-7 5l-3 0c-2 2-5 3-7 3l-156 0c-42 0-76-34-76-77l0-358c0-43 34-77 76-77l256 0c43 0 77 34 77 77 0 14-11 25-25 25z"/>
<glyph glyph-name="ppra" unicode="&#101;" d="M333 307l-154 0c-14 0-25-11-25-25 0-15 11-26 25-26l154 0c14 0 25 11 25 26 0 14-11 25-25 25z m77-230c0-15-11-26-26-26l-256 0c-15 0-26 11-26 26l0 307c0 15 11 26 26 26l26 0 0-26c0-15 11-26 25-26l154 0c14 0 25 11 25 26l0 26 26 0c15 0 26-11 26-26z m-205 358c0 15 11 26 25 26l52 0c14 0 25-11 25-26l0-25-102 0z m179 26l-30 0c-11 31-40 51-72 51l-52 0c-32 0-61-20-72-51l-30 0c-43 0-77-34-77-77l0-307c0-43 34-77 77-77l256 0c43 0 77 34 77 77l0 307c0 43-34 77-77 77z m-102-256l-103 0c-14 0-25-11-25-26 0-14 11-25 25-25l103 0c14 0 25 11 25 25 0 15-11 26-25 26z"/>
<glyph glyph-name="xml" unicode="&#102;" d="M504 276l-144 139c-7 7-18 11-28 8-10-2-17-10-20-20-2-10 0-20 8-27l122-120-123-120c-5-5-8-13-8-20 0-8 3-14 8-20 5-5 13-9 20-9 8 0 15 4 20 9l145 140c5 5 8 12 8 20 0 8-3 14-8 20z m-311 139c-5 6-13 9-20 9-8 0-15-3-20-9l-145-139c-5-5-8-12-8-20 0-8 3-14 8-20l144-139c5-6 13-9 20-9 8 0 15 3 20 9 5 5 9 12 9 20 0 7-4 14-9 20l-122 119 123 120c5 5 8 13 8 20 0 7-3 14-8 19z"/>
<glyph glyph-name="cc-visa" unicode="&#103;" d="M491 229l-39 0c2 7 9 24 19 51l0 3c1 2 2 4 3 7 1 3 2 6 3 8l3-16z m-412 19l-17 84c-2 10-9 15-21 15l-77 0-1-3c60-15 98-47 116-96z m51 99l-47-125-4 26c-5 13-13 25-25 37-11 11-23 19-37 25l38-146 50 0 75 183z m39-183l48 0 30 183-48 0z m220 179c-13 5-27 8-43 8-23 0-42-6-57-17-15-12-23-26-23-44 0-19 14-36 42-50 9-4 15-8 19-11 3-4 5-8 5-12 0-5-3-10-8-13-6-3-13-4-20-4-16 0-31 3-45 9l-6 3-6-41c14-6 31-10 52-10 25 0 45 6 60 17 15 12 23 27 23 46 0 20-13 37-40 50-9 4-16 8-20 12-4 3-7 7-7 11 0 4 3 7 7 11 5 3 12 4 21 4 13 0 25-2 35-7l4-2z m121 4l-36 0c-13 0-21-5-25-15l-70-168 49 0 10 27 61 0c1-4 3-13 6-27l44 0z m75 92l0-366c0-10-3-18-11-26-7-7-16-10-25-10l-586 0c-9 0-18 3-25 10-8 8-11 16-11 26l0 366c0 10 3 18 11 26 7 7 16 10 25 10l586 0c9 0 18-3 25-10 8-8 11-16 11-26z"/>
<glyph glyph-name="cart" unicode="&#104;" d="M469 216l42 185c3 13-7 26-20 26l-349 0-9 39c-2 10-10 18-21 18l-91 0c-11 0-21-10-21-22l0-14c0-12 10-21 21-21l62 0 63-306c-15-8-25-24-25-43 0-27 22-50 50-50 27 0 49 23 49 50 0 14-5 27-15 36l187 0c-9-9-15-22-15-36 0-27 22-50 50-50 27 0 49 23 49 50 0 20-11 37-28 45l5 22c3 13-7 26-21 26l-238 0-6 28 261 0c10 0 18 7 20 17z"/>
<glyph glyph-name="minus" unicode="&#105;" d="M448 304l-384 0c-18 0-32-14-32-32l0-32c0-18 14-32 32-32l384 0c18 0 32 14 32 32l0 32c0 18-14 32-32 32z"/>
<glyph glyph-name="plus" unicode="&#106;" d="M448 304l-144 0 0 144c0 18-14 32-32 32l-32 0c-18 0-32-14-32-32l0-144-144 0c-18 0-32-14-32-32l0-32c0-18 14-32 32-32l144 0 0-144c0-18 14-32 32-32l32 0c18 0 32 14 32 32l0 144 144 0c18 0 32 14 32 32l0 32c0 18-14 32-32 32z"/>
<glyph glyph-name="star" unicode="&#107;" d="M230 468l-58-118-129-19c-24-3-33-32-16-48l94-92-22-129c-4-24 20-41 41-30l116 61 116-61c21-11 45 6 41 30l-22 129 94 92c17 16 8 45-16 48l-129 19-58 118c-11 21-41 21-52 0z"/>
<glyph glyph-name="arrow-left" unicode="&#108;" d="M362 6c9-8 23-8 31 1 5 4 7 10 7 16 0 6-2 11-7 15l-225 218 225 218c5 4 7 9 7 15 0 6-2 12-7 16-4 5-10 7-15 7-6 0-12-2-16-6l-243-233c-5-5-7-11-7-17 0-6 2-12 7-17z"/>
<glyph glyph-name="arrow-right" unicode="&#109;" d="M150 506c-9 8-23 8-31-1-5-4-7-10-7-16 0-6 2-11 7-15l225-218-225-218c-5-4-7-9-7-15 0-6 2-12 7-16 4-5 10-7 15-7 6 0 12 2 16 6l243 233c5 5 7 11 7 17 0 6-2 12-7 17z"/>
<glyph glyph-name="close" unicode="&#110;" d="M470 91l-165 165 165 165c13 14 13 35 0 49-14 13-35 13-49 0l-165-165-165 165c-14 13-35 13-49 0-13-14-13-35 0-49l165-165-165-165c-13-14-13-35 0-49 14-13 35-13 49 0l165 165 165-165c14-13 35-13 49 0 14 14 14 35 0 49z"/>
<glyph glyph-name="arrow-up" unicode="&#111;" d="M6 150c-8-9-8-23 1-31 4-5 10-7 16-7 6 0 11 2 15 7l218 225 218-225c4-5 9-7 15-7 6 0 12 2 16 7 5 4 7 10 7 15 0 6-2 12-6 16l-233 243c-5 5-11 7-17 7-6 0-12-2-17-7z"/>
<glyph glyph-name="arrow-down" unicode="&#112;" d="M506 362c8 9 8 23-1 31-4 5-10 7-16 7-6 0-11-2-15-7l-218-225-218 225c-4 5-9 7-15 7-6 0-12-2-16-7-5-4-7-10-7-15 0-6 2-12 6-16l233-243c5-5 11-7 17-7 6 0 12 2 17 7z"/>
<glyph glyph-name="contract" unicode="&#113;" d="M482 316l-95 0c-3 0-6 3-6 6l0 98-194 0c-11 0-19-8-19-19l0-361c0-10 8-19 19-19l276 0c11 0 19 9 19 19z m-88 95l0-83 79 0z m98-84c2-1 3-3 3-5l0-282c0-17-14-31-32-31l-276 0c-18 0-32 14-32 31l0 361c0 18 14 32 32 32l200 0c3 0 5-1 6-3z m-31-60c-1-1-3-2-5-2l-262 0c-4 0-7 3-7 6 0 4 3 7 6 7l263 0c4 0 7-3 7-6 0-2-1-3-2-5z m0-61c-1-1-3-2-5-2l-262-1c-4 0-7 3-7 7 0 3 3 6 6 6l263 1c4 0 7-3 7-7 0-1-1-3-2-4z m0-62c-1-1-3-2-5-2l-262 0c-4 0-7 3-7 6 0 4 3 7 6 7l263 0c4 0 7-3 7-6 0-2-1-4-2-5z m-117-60c-1-1-3-2-5-2l-145-1c-3 0-6 3-6 7 0 3 3 6 6 6l145 1c4 0 7-3 7-7 0-2-1-3-2-4z m0 242c-1-2-3-2-5-2l-145-1c-3 0-6 3-6 7 0 3 3 6 6 6l145 0c4 0 7-2 7-6 0-2-1-3-2-4z m-96 125l0 38-194 0c-10 0-18-9-18-20l0-361c0-10 8-19 18-19l75 0 0-13-75 0c-17 0-31 14-31 32l0 361c0 18 14 32 31 32l201 0c2 0 4-1 5-2l46-48-18 0-27 28 0-28z m-119-118l-68 0c-3 0-6 3-6 6 0 4 3 7 6 7l68 0z m0-62l-68 0c-3 0-6 3-6 7 0 3 3 6 6 6l68 0z m0-61l-68 0c-3 0-6 2-6 6 0 3 3 6 6 6l68 0z m0-61l-67 0c-3 0-6 3-6 6 0 4 3 7 6 7l67 0z m0 243l-67-1c-3 0-6 3-6 7 0 3 3 6 6 6l67 0z"/>
<glyph glyph-name="eye-open" unicode="&#114;" d="M256 64c-160 0-250 175-254 183-2 7-2 13 0 20 4 6 94 181 254 181 160 0 250-175 254-183 2-7 2-13 0-20-4-6-94-181-254-181z m-211 192c19-34 96-149 211-149 115 0 190 115 211 149-19 34-96 149-211 149-115 0-190-115-211-149z m211-85c-47 0-85 38-85 85 0 47 38 85 85 85 47 0 85-38 85-85 0-47-38-85-85-85z m0 128c-23 0-43-20-43-43 0-23 20-43 43-43 23 0 43 20 43 43 0 23-20 43-43 43z"/>
<glyph glyph-name="eye-closed" unicode="&#115;" d="M217 396c12 2 25 5 39 5 111 0 184-112 204-145-10-19-22-37-37-52-8-8-6-22 2-29 4-4 9-4 13-4 6 0 12 2 16 9 19 20 33 45 48 70 4 6 4 12 0 18-4 7-91 178-246 178-17 0-33-2-47-6-13-6-19-17-17-29 4-10 14-19 25-15z m281-353l-455 455c-8 8-20 8-29 0-8-9-8-21 0-29l89-89c-37-33-68-70-93-114-4-6-4-12 0-18 4-6 91-178 246-178 43 0 85 13 120 37l93-93c4-4 10-6 14-6 4 0 10 2 15 6 8 9 8 21 0 29z m-283 223l51-51c-14-4-29-2-41 8-10 12-14 29-10 43z m41-155c-111 0-184 112-204 145 20 37 47 68 80 95l54-54c-21-33-17-76 14-103 17-14 35-23 56-23 14 0 31 4 43 13l48-48c-27-16-58-25-91-25z"/>
<glyph glyph-name="check" unicode="&#116;" d="M250-3c-84 0-164 45-212 118-57 99-48 221 23 307 77 87 192 116 294 68 10-4 13-13 7-23-4-9-13-13-23-6-86 41-192 16-253-61-60-77-70-182-22-269 54-86 157-121 246-96 96 29 157 115 157 215l0 25c0 10 7 16 16 16 10 0 16-6 16-16l0-22c0-115-73-211-182-247-16-6-42-9-67-9z m-20 195c-3 0-9 0-12 3l-74 74c-3 6-3 19 0 25 3 7 16 7 22 0l61-60 256 256c7 6 16 6 23 0 6-7 6-16 0-23l-263-272c-3-3-9-3-13-3z"/>
<glyph glyph-name="print" unicode="&#117;" d="M85 512l342 0c6 0 11-6 11-12l0-122 28 0c26 0 46-22 46-49l0-183c0-27-20-48-46-48l-28 0 0-86c0-6-5-12-11-12l-342 0c-6 0-11 6-11 12l0 86-28 0c-26 0-46 21-46 48l0 183c0 27 20 49 46 49l28 0 0 122c0 6 5 12 11 12z m12-24l0-110 318 0 0 110z m-51-134c-13 0-23-11-23-25l0-183c0-13 10-24 23-24l28 0c0 65 0 97 0 97 0 0 335 0 364 0 0-18 0-51 0-97l28 0c13 0 23 11 23 24l0 183c0 14-10 25-23 25z m380-55c6 0 11-5 11-11 0-6-5-11-11-11-6 0-11 5-11 11 0 6 5 11 11 11z m-329-104l0-171 318 0 0 171z m63-113l192 0c6 0 11-4 11-10l0 0c0-6-5-11-11-11l-192 0c-6 0-11 5-11 11l0 0c0 6 5 10 11 10z m0 65l192 0c6 0 11-5 11-10l0-1c0-6-5-10-11-10l-192 0c-6 0-11 4-11 10l0 1c0 5 5 10 11 10z"/>
<glyph glyph-name="search" unicode="&#118;" d="M347 274c0 36-12 66-37 91-25 25-55 37-91 37-35 0-65-12-90-37-25-25-38-55-38-91 0-35 13-65 38-90 25-25 55-38 90-38 36 0 66 13 91 38 25 25 37 55 37 90z m147-237c0-10-4-19-11-26-7-7-16-11-26-11-10 0-19 4-26 11l-98 98c-34-24-72-36-114-36-27 0-53 5-78 16-25 11-46 25-64 43-18 18-32 39-43 64-10 25-16 51-16 78 0 28 6 54 16 78 11 25 25 47 43 65 18 18 39 32 64 43 25 10 51 15 78 15 28 0 54-5 79-15 24-11 46-25 64-43 18-18 32-40 43-65 10-24 16-50 16-78 0-42-12-80-36-114l98-98c7-7 11-15 11-25z"/>
<glyph glyph-name="download" unicode="&#119;" d="M384 128c0 5-2 9-5 13-4 3-8 5-13 5-5 0-10-2-13-5-4-4-6-8-6-13 0-5 2-9 6-13 3-3 8-5 13-5 5 0 9 2 13 5 3 4 5 8 5 13z m73 0c0 5-2 9-5 13-4 3-8 5-13 5-5 0-9-2-13-5-4-4-5-8-5-13 0-5 1-9 5-13 4-3 8-5 13-5 5 0 9 2 13 5 3 4 5 8 5 13z m37 64l0-91c0-8-3-15-8-20-6-5-12-8-20-8l-420 0c-8 0-14 3-20 8-5 5-8 12-8 20l0 91c0 8 3 14 8 19 6 6 12 8 20 8l133 0 38-38c11-11 24-16 39-16 15 0 28 5 39 16l39 38 132 0c8 0 14-2 20-8 5-5 8-11 8-19z m-93 163c3-8 2-15-4-20l-128-128c-4-4-8-6-13-6-5 0-9 2-13 6l-128 128c-6 5-7 12-4 20 3 7 9 11 17 11l73 0 0 128c0 5 2 9 6 13 3 3 7 5 12 5l74 0c5 0 9-2 12-5 4-4 6-8 6-13l0-128 73 0c8 0 14-4 17-11z"/>
<glyph glyph-name="check-ball" unicode="&#120;" d="M503 256c0-136-111-247-247-247-136 0-247 111-247 247 0 136 111 247 247 247 136 0 247-111 247-247z m-126 80l-158-131-84 72c-6 5-16 5-22 0-6-6-6-15 0-20l95-80c4-3 8-4 12-4 3 0 7 1 11 4l169 139c6 5 6 15 1 20-7 5-18 5-24 0z"/>
</font>
</defs>
</svg>
